<?xml version="1.0" encoding="utf-8"?>
<!-- Generator: Adobe Illustrator 26.4.1, SVG Export Plug-In . SVG Version: 6.00 Build 0)  -->
<svg version="1.1" id="Слой_1" xmlns="http://www.w3.org/2000/svg" xmlns:xlink="http://www.w3.org/1999/xlink" x="0px" y="0px"
	 viewBox="0 0 555 146" style="enable-background:new 0 0 555 146;" xml:space="preserve">
<style type="text/css">
	.st0{fill:#FFFFFF;}
</style>
<g>
	<g>
		<path class="st0" d="M60.9,71l-0.3,0.2c-3.8-0.1-7.2-0.2-10.4-0.2c-4.6,0-7.9,0.1-9.8,0.2L40.1,71v-2.3l0.3-0.3
			c2.2-0.1,3.5-0.2,3.8-0.3c0.6-0.2,1-0.6,1.1-1.2c0.3-1.6,0.4-5,0.4-10.1V45.6l-0.1-16l-0.8,0c-1.2,1.9-2.8,4.7-5,8.3L34,47.6
			c-4.7,7.9-7.7,13.3-9,16.2c-0.5,1.3-0.8,2.1-0.8,2.6c0,0.7,0.7,1.3,2,1.5c0.9,0.2,1.8,0.3,2.7,0.4l0.3,0.3V71l-0.3,0.2
			c-3.2-0.1-6.2-0.2-8.9-0.2c-1.5,0-3.9,0.1-7.2,0.2L12.4,71v-2.3l0.3-0.3l2.1-0.4c0.6-0.1,1.1-0.3,1.5-0.5c0.7-0.3,1.7-1.5,3-3.4
			c2.7-3.9,4.9-7.2,6.6-9.8l15.2-24.1c0.2-0.3,0.3-0.5,0.3-0.6c0-0.5-2.9-1.1-8.7-1.8l-0.3-0.3V25l0.3-0.2c1,0.1,4.9,0.1,11.4,0.2
			c5.3,0,8.9,0,10.8-0.2l0.4,0.3c0,0.7-0.1,2.9-0.1,6.6c-0.1,5.5-0.2,10.1-0.2,13.9l0,11.1c0,5.2,0.1,8.6,0.4,10.1
			c0.1,0.6,0.5,1,1.1,1.2c0.3,0.1,1.6,0.2,3.8,0.3l0.3,0.3V71z"/>
		<path class="st0" d="M81.7,55.1h-4.4c0,3.4,0,6.3,0.1,8.5c0.1,2.3,0.2,3.6,0.3,3.9c0.1,0.3,0.4,0.6,0.8,0.7
			c0.4,0.2,1.6,0.3,3.6,0.4l0.3,0.3v2l-0.3,0.3c-2.1-0.2-5.1-0.2-9-0.2c-3.6,0-6.6,0.1-8.9,0.2L64,70.9v-2l0.3-0.3
			c1.7-0.1,2.9-0.2,3.4-0.3c0.5-0.1,0.9-0.4,1-0.9c0.2-0.4,0.2-2.2,0.2-5.3V51.7c0-3.3,0-5.4-0.1-6.4c-0.1-1-0.2-1.6-0.4-1.8
			c-0.2-0.2-0.4-0.4-0.8-0.5c-0.4-0.1-1.5-0.2-3.4-0.3l-0.3-0.4v-2l0.3-0.3c2.1,0.2,5.1,0.2,8.9,0.2c3.9,0,6.9-0.1,9-0.2l0.3,0.3v2
			l-0.4,0.4c-1.8,0.1-2.9,0.2-3.4,0.3c-0.4,0.1-0.7,0.3-0.9,0.6c-0.2,0.3-0.3,1.1-0.4,2.6c-0.1,1.5-0.1,2.6-0.1,3.5v3h4.5
			c0.5-4.1,2.4-7.5,5.8-10c3.4-2.5,7.6-3.8,12.7-3.8c5.3,0,9.6,1.4,12.9,4.2c3.3,2.8,5,6.7,5,11.7c0,3.4-0.7,6.5-2.2,9.3
			c-1.5,2.8-3.7,4.9-6.7,6.3c-3,1.4-6.3,2.1-9.8,2.1c-3.2,0-6.1-0.6-8.8-1.7c-2.7-1.1-4.8-3-6.5-5.6C82.5,62.5,81.7,59.2,81.7,55.1z
			 M90.7,55.1c0,4.5,0.8,8.1,2.3,10.7c1.5,2.6,3.8,3.9,6.8,3.9c2.9,0,5.2-1.2,6.9-3.6c1.7-2.4,2.5-6.1,2.5-11c0-2.1-0.2-4-0.6-5.7
			c-0.4-1.7-1-3.1-1.8-4.3c-0.8-1.2-1.7-2.1-2.9-2.7c-1.2-0.7-2.5-1-3.9-1c-2.7,0-4.9,1.2-6.6,3.5C91.6,47.3,90.7,50.7,90.7,55.1z"
			/>
		<path class="st0" d="M152.7,23.8l1.2,1.3c-1,2.3-1.8,3.9-2.4,5c-0.6,1.1-1.2,1.8-1.8,2.1c-0.5,0.3-1.3,0.5-2.2,0.6
			c-0.9,0.1-3.2,0.2-6.8,0.2c-2.6,0-4.5,0.2-5.6,0.3c-1.2,0.2-2.3,0.5-3.3,1c-1,0.5-1.9,1.3-2.6,2.3c-0.8,1-1.3,2.2-1.6,3.5
			c-0.3,1.3-0.5,2.8-0.5,4.3c0,1.2,0.1,2.6,0.3,4.2h0.4c1.3-3,3.2-5.2,5.6-6.8c2.4-1.6,5.7-2.4,9.7-2.4c3.4,0,6.4,0.6,8.8,1.8
			c2.4,1.2,4.3,2.9,5.5,5.2c1.2,2.2,1.9,5,1.9,8.2c0,5.5-1.6,9.9-4.8,13.1c-3.2,3.2-7.6,4.8-13.1,4.8c-4.2,0-7.6-0.7-10.1-2.1
			c-2.5-1.4-4.4-3.6-5.7-6.7c-1.3-3.1-2-7.4-2-13c0-5,0.6-9.3,1.8-12.8c1.2-3.5,2.7-6,4.4-7.6c1.7-1.5,3.5-2.5,5.4-2.8
			c1.9-0.3,5.6-0.5,11-0.5c1.5,0,2.5-0.1,3.1-0.2c0.6-0.2,1.1-0.4,1.5-0.8C151.2,25.5,151.8,24.8,152.7,23.8z M131.9,55.5
			c0,4.1,0.8,7.4,2.5,10.1c1.6,2.7,3.9,4,6.7,4c1.8,0,3.4-0.5,4.7-1.6c1.4-1.1,2.5-2.8,3.3-5.3c0.8-2.5,1.2-5.2,1.2-8.1
			c0-3.7-0.7-6.7-2.1-9.1c-1.4-2.4-3.7-3.6-6.9-3.6c-3,0-5.3,1.1-6.9,3.4C132.7,47.6,131.9,51,131.9,55.5z"/>
		<path class="st0" d="M196.1,70.8l-0.3,0.4c-1.9-0.1-3.9-0.2-5.9-0.2c-2.1,0-4,0.1-5.8,0.2l-0.3-0.4l0.3-4.1l-0.5-0.1
			c-1.5,1.3-2.4,2.2-2.9,2.6c-1,0.8-1.9,1.4-2.6,1.8c-1.4,0.7-3.2,1.1-5.3,1.1c-5.5,0-8.3-2.7-8.3-8.2c0-2.9,0.9-5.1,2.6-6.6
			c1.3-1.2,4.2-2.2,8.6-3l8-1.5c0-2-0.2-3.4-0.5-4.4c-0.5-1.5-1.3-2.6-2.6-3.4c-1-0.7-2.2-1-3.6-1c-1,0-2.2,0.2-3.8,0.5l-2.5,4.8
			l-0.4,0.2l-1.4-0.3l-0.3-0.5l0.3-4.4c5.1-3.4,9.1-5.1,12-5.1c4.1,0,7.2,1.3,9.1,3.9c1.1,1.5,1.7,3.7,1.7,6.5
			c0,0.9-0.1,3.2-0.2,6.8c0,1.4-0.1,2.7-0.1,3.7c0,4.8,0.2,7.5,0.5,7.9c0.3,0.4,1.6,0.7,3.8,0.8l0.3,0.3V70.8z M183.8,59.7v-5.3
			c-2,0.6-3.5,1-4.6,1.4c-2.1,0.7-3.6,1.3-4.3,1.9c-1.5,1.1-2.2,2.6-2.2,4.5c0,1.4,0.4,2.5,1.3,3.4c0.9,0.9,2,1.3,3.3,1.3
			c2.1,0,3.8-0.9,5.1-2.6C183.4,63.4,183.8,61.8,183.8,59.7z"/>
		<path class="st0" d="M229.8,61.1c0,2.9-1.1,5.2-3.3,7.1c-2.2,1.9-5.1,2.9-8.7,2.9c-0.4,0-2,0-4.7-0.1c-0.9,0-2.6,0-5,0
			c-3.4,0-5.5,0-6.3,0.1l-0.2-0.2v-1.4l0.1-0.3c1.2-0.7,1.8-1.2,1.8-1.4c0.2-0.5,0.2-3,0.2-7.4v-9.9c0-4.3-0.2-6.7-0.5-7.1
			c-0.2-0.3-0.5-0.4-0.8-0.5c-0.5-0.1-1.5-0.2-3.2-0.3l-0.3-0.3v-2l0.2-0.3c3.7,0.1,6,0.2,6.9,0.2c5.3,0,8.9,0,10.9-0.1
			c1.3,0,2.2-0.1,2.7-0.1c4.1,0,6.8,0.9,8,2.8c0.7,1,1,2.1,1,3.3c0,2.8-1.3,4.8-3.8,6.2c-1.1,0.6-2.5,1.1-4.2,1.5
			C226.8,54,229.8,56.5,229.8,61.1z M220.1,47.5c0-3.2-1.7-4.7-5-4.7c-0.9,0-1.9,0.1-2.8,0.2c-0.1,1.7-0.1,3.2-0.1,4.3v5.7
			c0.3,0,0.7,0.1,1.2,0.1C217.9,52.9,220.1,51.1,220.1,47.5z M221,61.6c0-4.3-2.3-6.4-6.9-6.4c-0.6,0-1.3,0-2,0.1V65
			c0,1.2,0,2.2,0.1,3.2c0.9,0.1,1.6,0.2,2.3,0.2c2.9,0,4.8-1.1,5.8-3.3C220.8,64,221,62.8,221,61.6z"/>
		<path class="st0" d="M266.7,70.8l-0.3,0.4c-1.9-0.1-3.9-0.2-5.9-0.2c-2.1,0-4,0.1-5.8,0.2l-0.3-0.4l0.3-4.1l-0.5-0.1
			c-1.5,1.3-2.4,2.2-2.9,2.6c-1,0.8-1.9,1.4-2.6,1.8c-1.4,0.7-3.2,1.1-5.3,1.1c-5.5,0-8.3-2.7-8.3-8.2c0-2.9,0.9-5.1,2.6-6.6
			c1.3-1.2,4.2-2.2,8.6-3l8-1.5c0-2-0.2-3.4-0.5-4.4c-0.5-1.5-1.3-2.6-2.6-3.4c-1-0.7-2.2-1-3.6-1c-1,0-2.2,0.2-3.8,0.5l-2.5,4.8
			l-0.4,0.2l-1.4-0.3l-0.3-0.5l0.3-4.4c5.1-3.4,9.1-5.1,12-5.1c4.1,0,7.2,1.3,9.1,3.9c1.1,1.5,1.7,3.7,1.7,6.5
			c0,0.9-0.1,3.2-0.2,6.8c0,1.4-0.1,2.7-0.1,3.7c0,4.8,0.2,7.5,0.5,7.9c0.3,0.4,1.6,0.7,3.8,0.8l0.3,0.3V70.8z M254.4,59.7v-5.3
			c-2,0.6-3.5,1-4.6,1.4c-2.1,0.7-3.6,1.3-4.3,1.9c-1.5,1.1-2.2,2.6-2.2,4.5c0,1.4,0.4,2.5,1.3,3.4c0.9,0.9,2,1.3,3.3,1.3
			c2.1,0,3.8-0.9,5.1-2.6C253.9,63.4,254.4,61.8,254.4,59.7z"/>
		<path class="st0" d="M339,63.2l0.7,1.5l-0.1,0.5c-0.4,0.4-1.4,1.4-3,3.1c-1.6,1.7-2.6,2.9-3,3.5c-1.6,0.4-2.8,0.6-3.8,0.6
			c-2.4,0-4.7-0.5-6.8-1.5c-2.1-1-3.9-2.1-5.6-3.4c-3.9,3.2-8.6,4.9-13.9,4.9c-4.9,0-8.7-1.3-11.4-4c-2.7-2.7-4-5.8-4-9.4
			c0-3.1,1-5.8,2.9-7.9c1.9-2.2,4.5-4,7.7-5.5c-1.5-3.3-2.2-6.3-2.2-9.1c0-1.9,0.4-3.3,1.1-4.2l3.1-3.7c1.3-1.6,2.3-2.5,2.8-2.9
			c0.5-0.3,1.3-0.7,2.5-1.1c1.1-0.4,2.3-0.6,3.5-0.6c2.4,0,4.2,0.7,5.6,2c1.4,1.3,2,3.1,2,5.3c0,2.2-0.8,4.4-2.4,6.4
			c-1.6,2.1-4.4,4.3-8.3,6.8c1.7,2.7,3.8,5.5,6.4,8.5c2.6,3,5.1,5.4,7.5,7.2c1.4-2.3,2.1-4.4,2.1-6.4c0-0.9-0.1-1.8-0.4-2.7
			c-0.3-0.9-0.6-1.6-0.9-2.2h-5.9l-0.3-0.4c0.6-0.9,1.3-2.3,2.1-4.2c3.3,0.1,5.7,0.2,7.1,0.2c6.5,0,11.1-0.2,14-0.5l0.3,0.3
			c-0.7,2-1.1,3.6-1.2,4.9l-0.3,0.3c-2.9-0.3-6.1-0.4-9.6-0.5c0.2,1,0.3,1.9,0.3,2.8c0,1.5-0.3,3.1-0.9,4.7
			c-0.6,1.6-1.8,3.5-3.6,5.7c1.4,1,3,1.8,4.9,2.4c1.9,0.6,3.7,0.9,5.4,0.9c0.5,0,0.9-0.1,1.3-0.2c0.4-0.1,1.6-0.9,3.6-2.3L339,63.2z
			 M300,48.3c-1,0.6-1.9,1.5-2.7,2.6c-0.8,1.1-1.1,2.5-1.1,4c0,2.3,0.6,4.4,1.8,6.3c1.2,1.9,2.6,3.5,4.4,4.6
			c1.7,1.2,3.7,1.8,5.8,1.8c2.2,0,4.4-0.7,6.5-2.1c-3.2-2.7-5.8-5.3-8-7.9C304.4,55.1,302.2,51.9,300,48.3z M304.9,41.9
			c2-1.4,3.5-2.8,4.6-4.2c1.1-1.4,1.6-3,1.6-4.7c0-1.4-0.4-2.5-1.1-3.4c-0.8-0.9-1.8-1.3-3-1.3c-1.3,0-2.4,0.5-3.2,1.4
			c-0.8,0.9-1.2,2.1-1.2,3.5C302.6,35.7,303.4,38.6,304.9,41.9z"/>
		<path class="st0" d="M407.9,70.8l-0.4,0.4c-3.2-0.2-5.1-0.2-5.7-0.2c-1.1,0-2,0-2.9,0.1c-1.3,0.1-2.1,0.1-2.5,0.1
			c-0.7,0-1.3-0.2-1.8-0.6c-1.2-0.9-2.8-2.5-4.7-4.6l-15.2-17v7.8c0,5.2,0.1,8.6,0.4,10.1c0.1,0.6,0.5,1,1.1,1.2
			c0.3,0.1,1.6,0.2,3.8,0.3l0.3,0.3v2.2l-0.3,0.3c-2.2-0.1-5.5-0.2-10.1-0.2c-4.7,0-8,0.1-10.1,0.2l-0.3-0.3v-2.2l0.3-0.3
			c2.2-0.1,3.5-0.2,3.8-0.3c0.6-0.2,1-0.6,1.1-1.2c0.3-1.6,0.4-5,0.4-10.1V39.4c0-5.2-0.1-8.6-0.4-10.1c-0.1-0.6-0.5-1-1.1-1.2
			c-0.3-0.1-1.6-0.2-3.8-0.3l-0.3-0.3v-2.2l0.3-0.3C362,25,365.4,25,370,25c4.7,0,8.1-0.1,10.1-0.2l0.3,0.3v2.2l-0.3,0.3
			c-2.2,0.1-3.5,0.2-3.8,0.3c-0.6,0.2-1,0.6-1.1,1.2c-0.3,1.6-0.4,5-0.4,10.1v8.1c1.1-1.1,3.4-3.5,7-7.2c1.9-1.9,3.2-3.3,4-4.2
			c2.1-2.4,3.6-4,4.3-5c1.2-1.5,1.8-2.6,1.8-3.2c0-0.3-0.1-0.4-0.3-0.6l-0.4-0.3v-1.9l0.4-0.3c2.4,0.1,4.6,0.2,6.7,0.2
			c1.4,0,3.6-0.1,6.4-0.2l0.4,0.3v2.2l-0.3,0.3c-2.4,0.1-4.1,0.4-5.2,0.9c-0.9,0.4-2.4,1.5-4.3,3.1c-2.2,1.9-5,4.4-8.4,7.8
			c-1.3,1.3-3,2.9-5.2,5l18.7,19.4c2.6,2.7,5,4.2,7.3,4.6l0.3,0.3V70.8z"/>
	</g>
	<g>
		<path class="st0" d="M50.9,102.1h2.6c2.3,0,4.4,0.1,6,0.3c1.7,0.2,3.1,0.6,4.3,1.3c1.2,0.6,2.1,1.5,2.7,2.6
			c0.6,1.1,0.9,2.3,0.9,3.6c0,1.1-0.2,2.2-0.7,3.3c-0.5,1.1-1.1,2.1-2,2.9c-0.9,0.9-1.8,1.6-2.8,2.1c-1,0.5-2.1,0.9-3.1,1.1
			s-2.3,0.3-3.9,0.3c-0.8,0-2,0-3.5-0.1c-1.4-0.1-2.4-0.1-3.1-0.1c-1.7,0-3.6,0.1-5.7,0.2l-0.2-0.2v-1.1l0.2-0.1
			c1.3,0,2.1-0.1,2.6-0.2s0.8-0.2,1-0.4c0.2-0.2,0.3-0.5,0.3-0.9c0.1-0.4,0.1-1.5,0.1-3.2c0-1.7,0-3.1,0-4.2v-9.9c0-1.5,0-3-0.1-4.7
			c0-1.7-0.1-2.7-0.2-3c-0.1-0.3-0.2-0.5-0.3-0.7c-0.2-0.1-0.4-0.2-0.9-0.3c-0.4-0.1-1.3-0.1-2.7-0.2l-0.2-0.2v-1.1l0.2-0.2
			c2,0.1,7.5,0.2,16.3,0.2c0.5,0,2.4-0.1,5.7-0.2l0.3,0.5c-0.2,1.4-0.4,3.3-0.6,5.8l-0.1,0.2h-0.8l-0.2-0.2l-0.3-1.6
			c-0.1-0.6-0.2-1.1-0.4-1.5c-0.2-0.4-0.5-0.7-0.8-0.8C61.4,91.2,61,91,60.4,91s-1.3-0.1-2.2-0.1h-6.8l-0.3,0.4
			c-0.1,1.7-0.2,3.6-0.2,5.7V102.1z M50.9,117.5l0.3,0.4c1.2,0,2.1,0,2.6,0c2,0,3.6-0.3,4.9-0.9c1.2-0.6,2.2-1.5,2.9-2.8
			c0.7-1.3,1.1-2.7,1.1-4.2c0-1.3-0.3-2.5-1-3.6c-0.7-1.1-1.6-1.8-2.9-2.3c-1.3-0.4-3.3-0.6-6.1-0.6h-1.8V117.5z"/>
		<path class="st0" d="M73,104.8l-0.8-0.2l-0.2-0.2c0-0.2,0-0.5,0-0.9l0-1.8c1.5-1,2.9-1.7,3.9-2.2c1.1-0.4,2.2-0.7,3.5-0.7
			c2.2,0,4,0.6,5.3,1.7s1.9,2.7,1.9,4.7l-0.1,4.3v6.4c0,0.8,0.1,1.3,0.2,1.5c0.1,0.2,0.3,0.4,0.5,0.5c0.2,0.1,0.7,0.2,1.4,0.2
			l0.2,0.2v0.9l-0.2,0.2c-1.1-0.1-2-0.2-2.6-0.2c-0.6,0-1.5,0-2.8,0.2l-0.3-0.3l0.1-3.5l-2.8,2.1c-1,0.8-1.6,1.3-1.9,1.5
			c-0.8,0.3-1.6,0.5-2.6,0.5c-1.7,0-3-0.5-4-1.4c-1-0.9-1.5-2.1-1.5-3.7c0-1.6,0.4-2.9,1.3-4c0.8-1,2.1-1.8,3.8-2.4
			c1.7-0.6,4.3-1.1,7.7-1.6c0-0.9-0.1-1.6-0.2-2.3c-0.1-0.6-0.4-1.2-0.9-1.8c-0.5-0.6-1.1-1-1.8-1.3c-0.7-0.3-1.5-0.4-2.4-0.4
			c-0.5,0-0.9,0-1.4,0.1c-0.4,0.1-0.9,0.2-1.2,0.4s-0.6,0.3-0.7,0.4c-0.1,0.1-0.2,0.2-0.2,0.4c0,0.1-0.2,0.4-0.5,1
			c-0.2,0.5-0.4,0.9-0.5,1.3L73,104.8z M82.9,108.1c-3.3,0.5-5.6,1.2-7,2c-1.3,0.8-2,2-2,3.8c0,1.1,0.3,2,0.9,2.6
			c0.6,0.6,1.4,0.9,2.4,0.9c1.9,0,3.8-1.1,5.7-3.3V108.1z"/>
		<path class="st0" d="M97.8,108.2c2.6,0.1,4.5,0.1,5.5,0.1c1.2,0,3,0,5.4-0.1v-0.6c0-1.1,0-2.3,0-3.7c0-1.4-0.1-2.2-0.3-2.5
			s-0.3-0.5-0.6-0.6c-0.2-0.1-0.9-0.2-1.9-0.3l-0.2-0.2v-0.9l0.2-0.2c1.4,0.1,2.9,0.2,4.5,0.2c1.7,0,3.2-0.1,4.5-0.2l0.2,0.2v0.9
			l-0.2,0.2c-1.1,0.1-1.7,0.2-2,0.3c-0.2,0.1-0.4,0.3-0.6,0.6c-0.1,0.3-0.2,1-0.3,2.1c0,1.1,0,2.5,0,4.1v3.7l0,3.8
			c0,1.4,0.1,2.2,0.3,2.5c0.2,0.3,0.3,0.5,0.6,0.5c0.2,0.1,0.9,0.2,1.9,0.3l0.2,0.2v0.9l-0.2,0.2c-1.4-0.1-2.9-0.2-4.5-0.2
			c-1.7,0-3.2,0.1-4.5,0.2l-0.2-0.2v-0.9l0.2-0.2c1.1-0.1,1.7-0.2,2-0.3c0.2-0.1,0.4-0.3,0.6-0.5c0.1-0.3,0.2-0.9,0.3-2
			c0-1.1,0-2.5,0-4.2v-1.7c-1.6,0-3.4-0.1-5.4-0.1c-1.8,0-3.6,0-5.5,0.1v1.7c0,1.1,0,2.4,0,3.8c0,1.4,0.1,2.2,0.3,2.5
			c0.2,0.3,0.3,0.5,0.6,0.5c0.2,0.1,0.9,0.2,1.9,0.3l0.2,0.2v0.9l-0.2,0.2c-1.4-0.1-2.9-0.2-4.5-0.2c-1.7,0-3.2,0.1-4.5,0.2
			l-0.2-0.2v-0.9l0.2-0.2c1.1-0.1,1.7-0.2,2-0.3c0.2-0.1,0.4-0.3,0.6-0.5c0.2-0.3,0.2-0.9,0.3-2c0-1,0-2.5,0-4.3v-3.7
			c0-1.1,0-2.4,0-3.7c0-1.4-0.1-2.2-0.3-2.5c-0.2-0.3-0.4-0.5-0.6-0.5c-0.2-0.1-0.9-0.2-1.9-0.3l-0.2-0.2v-0.9l0.2-0.2
			c1.4,0.1,2.9,0.2,4.5,0.2c1.7,0,3.2-0.1,4.5-0.2l0.2,0.2v0.9l-0.2,0.2c-1.1,0.1-1.7,0.2-2,0.3s-0.4,0.3-0.6,0.5
			c-0.1,0.3-0.2,0.9-0.3,2c0,1,0,2.5,0,4.2V108.2z"/>
		<path class="st0" d="M123.5,108.2c2.6,0.1,4.5,0.1,5.5,0.1c1.2,0,3,0,5.4-0.1v-0.6c0-1.1,0-2.3,0-3.7c0-1.4-0.1-2.2-0.3-2.5
			s-0.3-0.5-0.6-0.6c-0.2-0.1-0.9-0.2-1.9-0.3l-0.2-0.2v-0.9l0.2-0.2c1.4,0.1,2.9,0.2,4.5,0.2c1.7,0,3.2-0.1,4.5-0.2l0.2,0.2v0.9
			l-0.2,0.2c-1.1,0.1-1.7,0.2-2,0.3c-0.2,0.1-0.4,0.3-0.6,0.6c-0.1,0.3-0.2,1-0.3,2.1c0,1.1,0,2.5,0,4.1v3.7l0,3.8
			c0,1.4,0.1,2.2,0.3,2.5c0.2,0.3,0.3,0.5,0.6,0.5c0.2,0.1,0.9,0.2,1.9,0.3l0.2,0.2v0.9l-0.2,0.2c-1.4-0.1-2.9-0.2-4.5-0.2
			c-1.7,0-3.2,0.1-4.5,0.2l-0.2-0.2v-0.9l0.2-0.2c1.1-0.1,1.7-0.2,2-0.3c0.2-0.1,0.4-0.3,0.6-0.5c0.1-0.3,0.2-0.9,0.3-2
			c0-1.1,0-2.5,0-4.2v-1.7c-1.6,0-3.4-0.1-5.4-0.1c-1.8,0-3.6,0-5.5,0.1v1.7c0,1.1,0,2.4,0,3.8c0,1.4,0.1,2.2,0.3,2.5
			c0.2,0.3,0.3,0.5,0.6,0.5c0.2,0.1,0.9,0.2,1.9,0.3l0.2,0.2v0.9l-0.2,0.2c-1.4-0.1-2.9-0.2-4.5-0.2c-1.7,0-3.2,0.1-4.5,0.2
			l-0.2-0.2v-0.9l0.2-0.2c1.1-0.1,1.7-0.2,2-0.3c0.2-0.1,0.4-0.3,0.6-0.5c0.2-0.3,0.2-0.9,0.3-2c0-1,0-2.5,0-4.3v-3.7
			c0-1.1,0-2.4,0-3.7c0-1.4-0.1-2.2-0.3-2.5c-0.2-0.3-0.4-0.5-0.6-0.5c-0.2-0.1-0.9-0.2-1.9-0.3l-0.2-0.2v-0.9l0.2-0.2
			c1.4,0.1,2.9,0.2,4.5,0.2c1.7,0,3.2-0.1,4.5-0.2l0.2,0.2v0.9l-0.2,0.2c-1.1,0.1-1.7,0.2-2,0.3s-0.4,0.3-0.6,0.5
			c-0.1,0.3-0.2,0.9-0.3,2c0,1,0,2.5,0,4.2V108.2z"/>
		<path class="st0" d="M143.5,119.4v-0.9l0.2-0.2c0.9-0.1,1.5-0.3,1.9-0.4c0.4-0.2,0.7-0.3,0.8-0.5c0.1-0.2,0.2-0.5,0.3-0.8
			c0-0.3,0.1-1.1,0.1-2.3c0-1.3,0.1-2.2,0.1-2.9v-3.9c0-3.4-0.1-5.3-0.3-5.8c-0.2-0.5-1.2-0.9-2.8-1.1l-0.2-0.2v-0.9l0.2-0.2
			c2,0.1,3.6,0.2,5,0.2c1.3,0,2.9-0.1,5-0.2l0.2,0.2v0.9l-0.2,0.2c-0.9,0.1-1.6,0.3-1.9,0.4s-0.6,0.3-0.8,0.5
			c-0.1,0.2-0.2,0.4-0.3,0.6c0,0.2-0.1,1-0.1,2.3c-0.1,1.3-0.1,2.3-0.1,3.1v0.4c1.2-0.1,2.4-0.1,3.5-0.1c1.9,0,3.3,0.2,4.3,0.5
			c1,0.4,1.8,1,2.3,1.9c0.6,0.9,0.9,1.9,0.9,3.1c0,1.3-0.4,2.5-1.1,3.5c-0.7,1-1.6,1.7-2.6,2.1c-1,0.4-2.4,0.6-4.1,0.6
			c-0.4,0-1.3,0-2.5-0.1c-1.1-0.1-1.9-0.1-2.4-0.1c-1.3,0-3,0.1-5,0.2L143.5,119.4z M150.4,108.9v3.9c0,2.1,0.1,3.5,0.1,4.1
			c0,0.6,0.2,1,0.4,1.2c0.2,0.2,0.7,0.3,1.4,0.3c1.7,0,3-0.5,3.9-1.5c0.9-1,1.3-2.3,1.3-4c0-0.9-0.2-1.6-0.5-2.3
			c-0.3-0.6-0.8-1.1-1.4-1.4c-0.6-0.3-1.6-0.5-2.8-0.5C152.2,108.8,151.4,108.8,150.4,108.9z M161.7,100.4v-0.9l0.2-0.2
			c2,0.1,3.6,0.2,5,0.2c1.3,0,3-0.1,5-0.2l0.2,0.2v0.9l-0.2,0.2c-0.9,0.1-1.5,0.3-1.9,0.4c-0.4,0.2-0.7,0.3-0.8,0.5
			c-0.1,0.2-0.2,0.5-0.3,0.8c0,0.3-0.1,1.1-0.1,2.3c0,1.2-0.1,2.2-0.1,2.9v3.9c0,3.4,0.1,5.3,0.3,5.8c0.2,0.5,1.2,0.9,2.8,1.1
			l0.2,0.2v0.9l-0.2,0.2c-2-0.1-3.6-0.2-5-0.2c-1.3,0-3,0.1-5,0.2l-0.2-0.2v-0.9l0.2-0.2c1.7-0.2,2.6-0.6,2.8-1.1
			c0.2-0.5,0.3-2.5,0.3-5.8v-3.9c0-3.4-0.1-5.3-0.3-5.8c-0.2-0.5-1.2-0.9-2.8-1.1L161.7,100.4z"/>
		<path class="st0" d="M175.4,119.4v-0.9l0.2-0.2c0.9-0.1,1.5-0.3,1.9-0.4c0.4-0.2,0.7-0.3,0.8-0.5c0.1-0.2,0.2-0.5,0.3-0.8
			c0-0.3,0.1-1.1,0.1-2.3c0-1.3,0.1-2.2,0.1-2.9v-3.9c0-3.4-0.1-5.3-0.3-5.8c-0.2-0.5-1.2-0.9-2.8-1.1l-0.2-0.2v-0.9l0.2-0.2
			c2,0.1,3.6,0.2,5,0.2c1.3,0,2.9-0.1,5-0.2l0.2,0.2v0.9l-0.2,0.2c-0.9,0.1-1.6,0.3-1.9,0.4s-0.6,0.3-0.8,0.5
			c-0.1,0.2-0.2,0.4-0.3,0.6c0,0.2-0.1,1-0.1,2.3c-0.1,1.3-0.1,2.3-0.1,3.1v8.9l0.3,0.1c1.4-2,3.1-4.9,5.3-8.5
			c2.1-3.7,3.8-6.5,4.9-8.6c1.3,0.1,2.5,0.2,3.4,0.2c0.9,0,2.1-0.1,3.4-0.2l0.2,0.2v0.9l-0.2,0.2c-1.7,0.2-2.6,0.6-2.8,1.1
			s-0.3,2.5-0.3,5.8v3.9c0,3.4,0.1,5.3,0.3,5.8c0.2,0.5,1.2,0.9,2.8,1.1l0.2,0.2v0.9l-0.2,0.2c-2-0.1-3.6-0.2-5-0.2
			c-1.3,0-2.9,0.1-5,0.2l-0.2-0.2v-0.9l0.2-0.2c1.7-0.2,2.6-0.6,2.8-1.1c0.2-0.5,0.3-2.5,0.3-5.8v-8.7l-0.3-0.1
			c-1,1.5-2.7,4.3-5,8.3c-2.3,4-3.9,6.9-4.8,8.7c-1.3-0.1-2.4-0.2-3.3-0.2c-0.9,0-2.2,0.1-3.8,0.2L175.4,119.4z M181.6,92l2.1-1.6
			l0.5,0.3c0.6,2.5,2,3.8,4.2,3.8c1.1,0,2.1-0.3,2.8-1c0.7-0.7,1.1-1.6,1.1-2.9l0.6-0.2l0.9,2.3c-1.8,2.1-3.8,3.1-6.2,3.1
			c-1.3,0-2.5-0.3-3.5-1C183.2,94.1,182.3,93.2,181.6,92z"/>
		<path class="st0" d="M214.2,119.4v-0.9l0.2-0.2c1.1-0.1,1.7-0.2,2-0.3c0.2-0.1,0.4-0.3,0.6-0.5c0.2-0.3,0.2-0.9,0.3-2
			c0-1,0-2.5,0-4.3v-3.7c0-1.1,0-2.4,0-3.7c0-1.4-0.1-2.2-0.3-2.5c-0.2-0.3-0.4-0.5-0.6-0.5c-0.2-0.1-0.9-0.2-1.9-0.3l-0.2-0.2v-0.9
			l0.2-0.2c1.4,0.1,3,0.2,4.6,0.2c1.7,0,3.3-0.1,4.6-0.2l0.2,0.2v0.9l-0.2,0.2c-1.1,0.1-1.7,0.2-2,0.3c-0.2,0.1-0.4,0.3-0.6,0.5
			c-0.1,0.3-0.2,0.9-0.3,2c0,1-0.1,2.5-0.1,4.2v1.4h0.2c1.8-1.6,3.6-3.3,5.3-5s2.6-2.6,2.8-2.8c0.2-0.2,0.2-0.4,0.2-0.5
			c0-0.2-0.1-0.3-0.4-0.4v-0.8l0.2-0.2c1.2,0.1,2.1,0.2,2.5,0.2c0.7,0,1.5-0.1,2.5-0.2l0.2,0.2v0.9l-0.2,0.2
			c-0.9,0.1-1.7,0.3-2.4,0.7c-0.7,0.4-3.1,2.5-7.4,6.4l8.8,9.2c0.6,0.7,1.1,1.1,1.3,1.2c0.2,0.2,0.5,0.2,1,0.2l0.1,0.1v0.9l-0.1,0.1
			c-2.2-0.1-3.6-0.2-4.1-0.3s-1-0.4-1.6-0.9s-1.6-1.5-2.9-2.9c-2.8-2.9-4.7-4.9-5.7-5.8h-0.2v1.7c0,1.2,0,2.4,0,3.8
			c0,1.4,0.1,2.2,0.3,2.4c0.2,0.3,0.3,0.5,0.6,0.5c0.2,0.1,0.9,0.2,1.9,0.3l0.2,0.2v0.9l-0.2,0.2c-1.4-0.1-3-0.2-4.6-0.2
			c-1.7,0-3.3,0.1-4.6,0.2L214.2,119.4z"/>
		<path class="st0" d="M258.7,108.5c0,1.8-0.3,3.4-0.9,4.9c-0.6,1.4-1.4,2.7-2.5,3.7c-1.1,1-2.2,1.8-3.4,2.2
			c-1.2,0.4-2.5,0.6-4.1,0.6c-3.5,0-6.2-1-8-3c-1.8-2-2.8-4.5-2.8-7.6c0-2.1,0.4-3.9,1.3-5.5c0.9-1.6,2.2-2.9,3.9-3.7
			c1.7-0.9,3.7-1.3,5.9-1.3c2.2,0,4.1,0.4,5.7,1.2c1.6,0.8,2.8,2,3.6,3.5C258.2,105,258.7,106.7,258.7,108.5z M254.5,109.8
			c0-2.9-0.6-5.2-1.8-6.9c-1.2-1.7-2.9-2.6-5.2-2.6c-1.9,0-3.5,0.7-4.7,2c-1.2,1.3-1.8,3.4-1.8,6.1c0,2.8,0.6,5.2,1.8,7.2
			c1.2,2,3,3,5.2,3c2,0,3.6-0.8,4.7-2.4C254,114.6,254.5,112.5,254.5,109.8z"/>
		<path class="st0" d="M283.3,99.3c1.2,0.1,2.2,0.1,3.1,0.1c1.1,0,2.2,0,3.4-0.1l0.2,0.2v0.9l-0.2,0.2c-1.1,0.1-1.7,0.2-2,0.3
			c-0.2,0.1-0.4,0.3-0.6,0.6c-0.1,0.3-0.2,1-0.3,2.1c0,1.1,0,2.5,0,4.1v3.7c0,1.1,0,2.3,0,3.7c0,1.4,0.1,2.3,0.3,2.5
			c0.2,0.3,0.3,0.5,0.6,0.5c0.2,0.1,0.9,0.2,1.9,0.3l0.2,0.2v0.9l-0.2,0.2c-1.4-0.1-3-0.2-4.6-0.2c-1.7,0-3.3,0.1-4.6,0.2l-0.2-0.2
			v-0.9l0.2-0.2c1.1-0.1,1.7-0.2,2-0.3c0.2-0.1,0.4-0.3,0.6-0.6c0.1-0.3,0.2-1,0.2-2.1c0-1.1,0-2.5,0-4.1v-8.2h-0.2l-7.9,16.3h-0.7
			l-7.6-16.3h-0.2l0.2,11.2c0,0.8,0,1.3,0,1.5c0,0.9,0.1,1.4,0.2,1.7c0.1,0.3,0.3,0.4,0.6,0.5c0.3,0.1,1,0.2,2,0.3l0.2,0.2v0.9
			l-0.2,0.2c-1.3-0.1-2.6-0.2-3.8-0.2c-1.1,0-2.3,0.1-3.6,0.2l-0.2-0.2v-0.9l0.2-0.2c1.2-0.1,2-0.2,2.3-0.3c0.3-0.1,0.5-0.3,0.6-0.7
			c0.1-0.3,0.2-1.4,0.2-3.1l0.1-9.6c0-1.6,0-2.6-0.1-3c-0.1-0.4-0.3-0.6-0.5-0.7c-0.3-0.1-1.1-0.3-2.4-0.4l-0.2-0.2v-0.9l0.2-0.2
			c1.5,0.1,2.6,0.1,3.5,0.1c0.9,0,2,0,3.3-0.1l6.8,14.9h0.3L283.3,99.3z"/>
		<path class="st0" d="M294.1,119.4v-0.9l0.2-0.2c0.9-0.1,1.5-0.3,1.9-0.4c0.4-0.2,0.7-0.3,0.8-0.5c0.1-0.2,0.2-0.5,0.3-0.8
			c0-0.3,0.1-1.1,0.1-2.3c0-1.3,0.1-2.2,0.1-2.9v-3.9c0-3.4-0.1-5.3-0.3-5.8c-0.2-0.5-1.2-0.9-2.8-1.1l-0.2-0.2v-0.9l0.2-0.2
			c4.3,0.1,8.3,0.2,12.1,0.2c3.5,0,7.6-0.1,12.1-0.2l0.2,0.2v0.9l-0.2,0.2c-0.9,0.1-1.6,0.3-1.9,0.4c-0.4,0.2-0.6,0.3-0.8,0.5
			c-0.1,0.2-0.2,0.4-0.3,0.6c0,0.2-0.1,1-0.1,2.3c-0.1,1.3-0.1,2.3-0.1,3.1v3.9c0,3.4,0.1,5.3,0.3,5.8c0.2,0.5,1.2,0.9,2.8,1.1
			l0.2,0.2v0.9l-0.2,0.2c-2-0.1-3.7-0.2-5-0.2c-1.3,0-2.9,0.1-5,0.2l-0.2-0.2v-0.9l0.2-0.2c1.7-0.2,2.6-0.6,2.9-1.1
			c0.2-0.5,0.3-2.5,0.3-5.8V101l-0.2-0.2h-10.4L301,101v10.4c0,3.4,0.1,5.3,0.3,5.8c0.2,0.5,1.2,0.9,2.8,1.1l0.2,0.2v0.9l-0.2,0.2
			c-2-0.1-3.7-0.2-5-0.2c-1.3,0-3,0.1-5,0.2L294.1,119.4z"/>
		<path class="st0" d="M320.4,118.5l0.2-0.2c0.7-0.1,1.3-0.2,1.8-0.5c0.5-0.2,1.1-0.9,1.9-1.8c0.8-1,2-2.5,3.7-4.7l4.4-6
			c1.3-1.8,2.1-2.8,2.2-3.1c0.2-0.3,0.2-0.5,0.2-0.7c0-0.3-0.2-0.5-0.5-0.6c-0.3-0.1-1.4-0.2-3.2-0.4l-0.2-0.2v-0.9l0.2-0.2
			c1.4,0.1,3,0.2,4.9,0.2c1.7,0,3.2-0.1,4.6-0.2l0.2,0.2c-0.1,2.4-0.2,5-0.2,7.7v4.2c0,3.4,0.1,5.3,0.3,5.8c0.2,0.5,1.2,0.9,2.8,1.1
			l0.2,0.2v0.9l-0.2,0.2c-2-0.1-3.6-0.2-5-0.2c-1.3,0-3,0.1-5,0.2l-0.2-0.2v-0.9l0.2-0.2c0.9-0.1,1.5-0.3,1.9-0.4
			c0.4-0.2,0.7-0.3,0.8-0.5c0.1-0.2,0.2-0.5,0.3-0.8c0-0.3,0.1-1.1,0.1-2.3c0-1.2,0.1-2.2,0.1-2.9v-9.8h-0.3l-5,7.1l-3.9,5.5
			c-1,1.4-1.5,2.3-1.6,2.5c-0.1,0.2-0.1,0.4-0.1,0.5c0,0.3,0.2,0.6,0.5,0.7c0.3,0.2,1.1,0.3,2.3,0.4l0.2,0.2v0.9l-0.2,0.2
			c-1.7-0.1-3.1-0.2-4.2-0.2c-1,0-2.4,0.1-4.2,0.2l-0.2-0.2V118.5z"/>
		<path class="st0" d="M364.6,116.2l-0.7,1.5c-1.5,1-2.8,1.6-4,1.9c-1.2,0.3-2.2,0.4-3.1,0.4c-1.7,0-3.3-0.3-4.9-1
			c-1.5-0.7-2.8-1.8-3.8-3.4c-1-1.6-1.5-3.5-1.5-5.8c0-1.5,0.2-2.9,0.6-4.1c0.4-1.2,0.8-2.1,1.2-2.7c0.4-0.6,1.1-1.2,2.1-2
			c1-0.7,2-1.3,3.1-1.7c1.1-0.4,2.3-0.6,3.5-0.6c1.7,0,3.2,0.4,4.5,1.2c1.3,0.8,2.2,1.8,2.8,3.1c0.5,1.3,0.8,2.6,0.8,4
			c0,0.4,0,0.9-0.1,1.3l-0.2,0.2c-1,0.2-2.3,0.4-3.9,0.4c-1.6,0.1-2.7,0.1-3.3,0.1h-6.9c0,3,0.8,5.1,2.2,6.6
			c1.5,1.4,3.3,2.1,5.4,2.1c1,0,2-0.2,2.9-0.5s1.9-0.8,2.9-1.4L364.6,116.2z M350.9,107.4c0.3,0,1.2,0.1,3,0.2
			c1.7,0.1,3,0.1,3.8,0.1c2,0,3.2,0,3.6-0.1c0-0.3,0-0.6,0-0.8c0-2.2-0.5-3.9-1.4-5c-0.9-1.1-2.1-1.6-3.7-1.6c-1.7,0-3,0.6-4,1.8
			C351.3,103.2,350.9,105,350.9,107.4z"/>
		<path class="st0" d="M368.4,119.4v-0.9l0.2-0.2c1.1-0.1,1.7-0.2,2-0.3c0.2-0.1,0.4-0.3,0.6-0.5c0.2-0.3,0.2-0.9,0.3-2
			c0-1,0-2.5,0-4.3v-3.7c0-1.1,0-2.4,0-3.7c0-1.4-0.1-2.2-0.3-2.5c-0.2-0.3-0.4-0.5-0.6-0.5c-0.2-0.1-0.9-0.2-1.9-0.3l-0.2-0.2v-0.9
			l0.2-0.2c1.4,0.1,3,0.2,4.6,0.2c1.7,0,3.3-0.1,4.6-0.2l0.2,0.2v0.9l-0.2,0.2c-1.1,0.1-1.7,0.2-2,0.3c-0.2,0.1-0.4,0.3-0.6,0.5
			c-0.1,0.3-0.2,0.9-0.3,2c0,1-0.1,2.5-0.1,4.2v1.4h0.2c1.8-1.6,3.6-3.3,5.3-5s2.6-2.6,2.8-2.8c0.2-0.2,0.2-0.4,0.2-0.5
			c0-0.2-0.1-0.3-0.4-0.4v-0.8l0.2-0.2c1.2,0.1,2.1,0.2,2.5,0.2c0.7,0,1.5-0.1,2.5-0.2l0.2,0.2v0.9l-0.2,0.2
			c-0.9,0.1-1.7,0.3-2.4,0.7c-0.7,0.4-3.1,2.5-7.4,6.4l8.8,9.2c0.6,0.7,1.1,1.1,1.3,1.2c0.2,0.2,0.5,0.2,1,0.2l0.1,0.1v0.9l-0.1,0.1
			c-2.2-0.1-3.6-0.2-4.1-0.3s-1-0.4-1.6-0.9s-1.6-1.5-2.9-2.9c-2.8-2.9-4.7-4.9-5.7-5.8H375v1.7c0,1.2,0,2.4,0,3.8
			c0,1.4,0.1,2.2,0.3,2.4c0.2,0.3,0.3,0.5,0.6,0.5c0.2,0.1,0.9,0.2,1.9,0.3l0.2,0.2v0.9l-0.2,0.2c-1.4-0.1-3-0.2-4.6-0.2
			c-1.7,0-3.3,0.1-4.6,0.2L368.4,119.4z"/>
		<path class="st0" d="M408.4,117.1l-0.9,1.4c-1.8,1-3.9,1.5-6.2,1.5c-3.2,0-5.6-0.9-7.3-2.8c-1.7-1.9-2.6-4.3-2.6-7.3
			c0-1.3,0.1-2.5,0.4-3.6c0.3-1.1,0.7-1.9,1.1-2.6s0.9-1.2,1.5-1.6c0.5-0.4,1.5-1,2.8-1.7c1.3-0.7,2.3-1.2,2.9-1.4
			c0.7-0.2,1.6-0.3,2.7-0.3c2.2,0,4,0.4,5.5,1.3c-0.3,1.6-0.5,3.4-0.6,5.4l-0.2,0.2h-0.9l-0.2-0.2c-0.1-1.2-0.1-2-0.2-2.4
			c-0.1-0.4-0.7-0.9-1.7-1.3c-1-0.5-2.1-0.7-3.3-0.7c-1.2,0-2.2,0.2-3.1,0.7c-0.9,0.5-1.6,1.3-2.1,2.4c-0.5,1.1-0.7,2.5-0.7,4
			c0,1.3,0.2,2.6,0.6,3.9c0.4,1.3,0.9,2.3,1.5,3.1c0.6,0.8,1.4,1.5,2.4,2c1,0.5,2.1,0.8,3.4,0.8c0.8,0,1.5-0.1,2.3-0.3
			c0.7-0.2,1.6-0.5,2.5-1L408.4,117.1z"/>
	</g>
	<g>
		<path class="st0" d="M425.6,21.4v98.3c0,3.1,2.5,5.6,5.6,5.6h98.3c3.1,0,5.6-2.5,5.6-5.6v-15.1c0-12-2.3-23.6-7-34.5
			c-4.5-10.6-10.9-20.1-19-28.2s-17.6-14.5-28.2-19c-10.9-4.6-22.6-7-34.5-7h-15.1C428.1,15.8,425.6,18.3,425.6,21.4z M446.3,19.4
			c22.8,0,44.1,8.9,60.2,24.9c16.1,16.1,24.9,37.5,24.9,60.2v15.1c0,1.1-0.9,2-2,2h-98.3c-1.1,0-2-0.9-2-2V21.4c0-1.1,0.9-2,2-2
			H446.3z"/>
		<path class="st0" d="M435.1,36.5v68c0,6.2,5,11.2,11.2,11.2h68c6.2,0,11.2-5,11.2-11.2c0-14.4-3.9-28.4-11.2-40.7
			c-0.3-0.5-0.8-0.8-1.3-0.8c-0.5-0.1-1.1,0.1-1.5,0.5c-1.2,1.2-2.9,1.9-4.6,1.9s-3.4-0.7-4.6-1.9l-6.2-6.2l4.4-4.4
			c0.3-0.3,0.5-0.8,0.5-1.3s-0.2-0.9-0.5-1.3c-0.7-0.7-1.8-0.7-2.5,0l-4.4,4.4l-6.2-6.2c-2.6-2.6-2.6-6.7,0-9.3
			c0.4-0.4,0.6-0.9,0.5-1.5c-0.1-0.5-0.4-1-0.8-1.3c-12.3-7.4-26.3-11.2-40.7-11.2C440.1,25.3,435.1,30.3,435.1,36.5z M483.4,38.6
			c-2.5,3.9-2,9.1,1.4,12.5l6.2,6.2l-5.4,5.4c-0.7,0.7-0.7,1.8,0,2.5c0.7,0.7,1.8,0.7,2.5,0l5.4-5.4l6.2,6.2
			c3.4,3.4,8.6,3.9,12.5,1.4c6.4,11.3,9.7,24.1,9.7,37.1c0,4.2-3.4,7.7-7.7,7.7h-68c-4.2,0-7.7-3.4-7.7-7.7v-68
			c0-4.2,3.4-7.7,7.7-7.7C459.3,28.8,472.1,32.2,483.4,38.6z"/>
		<path class="st0" d="M491.8,46c0,0.5,0.2,0.9,0.5,1.3c0.3,0.3,0.8,0.5,1.3,0.5c0.5,0,0.9-0.2,1.3-0.5c0.3-0.3,0.5-0.8,0.5-1.3
			c0-0.5-0.2-0.9-0.5-1.3c-0.3-0.3-0.8-0.5-1.3-0.5s-0.9,0.2-1.3,0.5C491.9,45,491.8,45.5,491.8,46z"/>
		<path class="st0" d="M503.1,57.3c0,0.5,0.2,0.9,0.5,1.3c0.3,0.3,0.8,0.5,1.3,0.5c0.5,0,0.9-0.2,1.3-0.5c0.3-0.3,0.5-0.8,0.5-1.3
			c0-0.5-0.2-0.9-0.5-1.3c-0.3-0.3-0.8-0.5-1.3-0.5s-0.9,0.2-1.3,0.5C503.3,56.4,503.1,56.8,503.1,57.3z"/>
		<path class="st0" d="M442.6,70.5c0,0.5,0.2,0.9,0.5,1.3c0.3,0.3,0.8,0.5,1.3,0.5c0.5,0,0.9-0.2,1.3-0.5c0.3-0.3,0.5-0.8,0.5-1.3
			s-0.2-0.9-0.5-1.3c-0.3-0.3-0.8-0.5-1.3-0.5c-0.5,0-0.9,0.2-1.3,0.5C442.8,69.6,442.6,70.1,442.6,70.5z"/>
		<path class="st0" d="M478.5,106.5c0,0.5,0.2,0.9,0.5,1.3c0.3,0.3,0.8,0.5,1.3,0.5c0.5,0,0.9-0.2,1.3-0.5c0.3-0.3,0.5-0.8,0.5-1.3
			s-0.2-0.9-0.5-1.3c-0.3-0.3-0.8-0.5-1.3-0.5c-0.5,0-0.9,0.2-1.3,0.5C478.7,105.5,478.5,106,478.5,106.5z"/>
		<path class="st0" d="M471,106.5c0,0.5,0.2,0.9,0.5,1.3c0.3,0.3,0.8,0.5,1.3,0.5s0.9-0.2,1.3-0.5c0.3-0.3,0.5-0.8,0.5-1.3
			s-0.2-0.9-0.5-1.3c-0.3-0.3-0.8-0.5-1.3-0.5c-0.5,0-0.9,0.2-1.3,0.5C471.2,105.5,471,106,471,106.5z"/>
		<path class="st0" d="M486.1,106.5c0,0.5,0.2,0.9,0.5,1.3c0.3,0.3,0.8,0.5,1.3,0.5c0.5,0,0.9-0.2,1.3-0.5c0.3-0.3,0.5-0.8,0.5-1.3
			c0-0.5-0.2-0.9-0.5-1.3c-0.3-0.3-0.8-0.5-1.3-0.5s-0.9,0.2-1.3,0.5C486.3,105.5,486.1,106,486.1,106.5z"/>
		<path class="st0" d="M442.6,78.1c0,0.5,0.2,0.9,0.5,1.3c0.3,0.3,0.8,0.5,1.3,0.5c0.5,0,0.9-0.2,1.3-0.5c0.3-0.3,0.5-0.8,0.5-1.3
			c0-0.5-0.2-0.9-0.5-1.3c-0.3-0.3-0.8-0.5-1.3-0.5c-0.5,0-0.9,0.2-1.3,0.5C442.8,77.2,442.6,77.6,442.6,78.1z"/>
		<path class="st0" d="M442.6,63c0,0.5,0.2,0.9,0.5,1.3c0.3,0.3,0.8,0.5,1.3,0.5c0.5,0,0.9-0.2,1.3-0.5c0.3-0.3,0.5-0.8,0.5-1.3
			s-0.2-0.9-0.5-1.3c-0.3-0.3-0.8-0.5-1.3-0.5c-0.5,0-0.9,0.2-1.3,0.5C442.8,62.1,442.6,62.5,442.6,63z"/>
	</g>
</g>
</svg>
